<?xml version="1.0" encoding="UTF-8"?>
<svg id="Layer_2" data-name="Layer 2" xmlns="http://www.w3.org/2000/svg" viewBox="0 0 122.53 122.53">
  <defs>
    <style>
      .cls-1 {
        fill: #83b240;
        stroke: #83b240;
        stroke-miterlimit: 10;
        stroke-width: 5px;
      }

      .cls-2 {
        fill: #231f20;
        stroke-width: 0px;
      }
    </style>
  </defs>
  <g id="Layer_1-2" data-name="Layer 1">
    <path class="cls-1" d="M117.96,82.5v24.86c0,5.84-4.76,10.6-10.6,10.6h-27.82v2.07h27.82c6.99,0,12.67-5.68,12.67-12.67v-24.86h-2.07ZM4.57,107.36v-24.86h-2.07v24.86c0,6.99,5.68,12.67,12.67,12.67h24.89v-2.07H15.17c-5.85,0-10.6-4.76-10.6-10.6ZM15.17,2.5c-6.99,0-12.67,5.68-12.67,12.67v27.86h2.07V15.17c0-5.84,4.75-10.6,10.6-10.6h24.89v-2.07H15.17ZM107.36,2.5h-27.82v2.07h27.82c5.84,0,10.6,4.75,10.6,10.6v27.86h2.07V15.17c0-6.98-5.68-12.67-12.67-12.67Z"/>
    <g>
      <path class="cls-2" d="M24.84,35.83c-1.22-1.15-1.83-2.95-1.83-5.39,0-4.75,2.51-7.12,7.53-7.12s7.43,2.38,7.43,7.12-2.48,7.12-7.43,7.12c-2.58,0-4.48-.58-5.7-1.73ZM25.14,43.25h11.9l-.1,55.96h-11.8v-55.96Z"/>
      <path class="cls-2" d="M55.16,46.66c4.41-3.36,10.82-5.04,19.23-5.04s14.45,1.59,18.72,4.78c4.27,3.19,6.41,8.17,6.41,14.96v37.85h-11.8v-34.29c0-4.75-1.21-8.09-3.61-10.02-2.41-1.93-5.78-2.9-10.12-2.9s-7.6,1-9.97,3c-2.38,2-3.56,5.44-3.56,10.33l-.1,33.88h-11.8v-36.63c0-7.26,2.2-12.57,6.61-15.92Z"/>
    </g>
  </g>
</svg>